{"accessors" : [{"bufferView" : 0, "byteOffset" : 0, "componentType" : 5123, "count" : 15876, "type" : "SCALAR", "max" : [15875], "min" : [0]}, {"bufferView" : 1, "byteOffset" : 0, "componentType" : 5126, "count" : 15876, "type" : "VEC3", "max" : [7.5, 7.5, 43], "min" : [-7.5, -7.5, -2], "name" : "POSITION"}, {"bufferView" : 1, "byteOffset" : 12, "componentType" : 5126, "count" : 15876, "type" : "VEC3", "max" : [1.0000044107437134, 1.0000044107437134, 1.0000044107437134], "min" : [-1.0000044107437134, -1.0000044107437134, -1.0000044107437134], "name" : "NORMAL"}, {"bufferView" : 1, "byteOffset" : 24, "componentType" : 5126, "count" : 15876, "type" : "VEC2", "max" : [41.400001525878906, 21.213598251342773], "min" : [-42.900001525878906, -21.213598251342773], "name" : "TEXCOORD_0"}, {"bufferView" : 0, "byteOffset" : 31752, "componentType" : 5123, "count" : 3492, "type" : "SCALAR", "max" : [3491], "min" : [0]}, {"bufferView" : 2, "byteOffset" : 0, "componentType" : 5126, "count" : 3492, "type" : "VEC3", "max" : [1, 0.6944921612739563, 41.5], "min" : [0, -0.6944921612739563, 3], "name" : "POSITION"}, {"bufferView" : 2, "byteOffset" : 12, "componentType" : 5126, "count" : 3492, "type" : "VEC3", "max" : [1.0000044107437134, 1.0000044107437134, 1.0000044107437134], "min" : [-1.0000044107437134, -1.0000044107437134, -1.0000044107437134], "name" : "NORMAL"}, {"bufferView" : 2, "byteOffset" : 24, "componentType" : 5126, "count" : 3492, "type" : "VEC2", "max" : [41.400001525878906, 0.7545722723007202], "min" : [-41.400001525878906, -0.8999999761581421], "name" : "TEXCOORD_0"}, {"bufferView" : 0, "byteOffset" : 38736, "componentType" : 5123, "count" : 6108, "type" : "SCALAR", "max" : [5027], "min" : [0]}, {"bufferView" : 3, "byteOffset" : 0, "componentType" : 5126, "count" : 5028, "type" : "VEC3", "max" : [8.899999618530273, 0.6000000238418579, -0.2733236849308014], "min" : [7.300000190734863, -0.6000000238418579, -1.4733237028121948], "name" : "POSITION"}, {"bufferView" : 3, "byteOffset" : 12, "componentType" : 5126, "count" : 5028, "type" : "VEC3", "max" : [1.0000044107437134, 1.0000044107437134, 1.0000044107437134], "min" : [-1.0000044107437134, -1.0000044107437134, -1.0000044107437134], "name" : "NORMAL"}, {"bufferView" : 3, "byteOffset" : 24, "componentType" : 5126, "count" : 5028, "type" : "VEC2", "max" : [0.5, 1.6970878839492798], "min" : [-1.2999999523162842, -1.6970878839492798], "name" : "TEXCOORD_0"}], "asset" : {"generator" : "Aspose.3D 22.7", "version" : "2.0"}, "buffers" : [{"uri" : "data:application/octet-stream;base64,", "byteLength" : 866200}], "bufferViews" : [{"buffer" : 0, "byteOffset" : 0, "byteLength" : 50952, "target" : 34963}, {"buffer" : 0, "byteOffset" : 50956, "byteLength" : 508032, "byteStride" : 32, "target" : 34962}, {"buffer" : 0, "byteOffset" : 558992, "byteLength" : 111744, "byteStride" : 32, "target" : 34962}, {"buffer" : 0, "byteOffset" : 670740, "byteLength" : 195456, "byteStride" : 32, "target" : 34962}], "materials" : [{"name" : "Cherry", "pbrMetallicRoughness" : {"baseColorFactor" : [0, 0, 0, 1], "metallicFactor" : 0, "roughnessFactor" : 0}, "emissiveFactor" : [0, 0, 0], "alphaMode" : "OPAQUE", "doubleSided" : false}, {"name" : "LED - SMD 3528 - 8lm (White)", "pbrMetallicRoughness" : {"baseColorFactor" : [0.9294117647058824, 0.9294117647058824, 0.9294117647058824, 1], "metallicFactor" : 0, "roughnessFactor" : 0}, "emissiveFactor" : [0, 0, 0], "alphaMode" : "OPAQUE", "doubleSided" : false}, {"name" : "Aluminum - Satin", "pbrMetallicRoughness" : {"baseColorFactor" : [0.9607843137254902, 0.9607843137254902, 0.9647058823529412, 1], "metallicFactor" : 0, "roughnessFactor" : 0}, "emissiveFactor" : [0, 0, 0], "alphaMode" : "OPAQUE", "doubleSided" : false}], "meshes" : [{"primitives" : [{"attributes" : {"POSITION" : 1, "NORMAL" : 2, "TEXCOORD_0" : 3}, "indices" : 0, "material" : 0, "mode" : 4}], "name" : "Body1"}, {"primitives" : [{"attributes" : {"POSITION" : 5, "NORMAL" : 6, "TEXCOORD_0" : 7}, "indices" : 4, "material" : 1, "mode" : 4}], "name" : "Body2"}, {"primitives" : [{"attributes" : {"POSITION" : 9, "NORMAL" : 10, "TEXCOORD_0" : 11}, "indices" : 8, "material" : 2, "mode" : 4}], "name" : "Body5"}], "nodes" : [{"matrix" : [10, 0, 0, 0, 0, 10, 0, 0, 0, 0, 10, 0, 0, 0, 0, 1], "mesh" : 0, "name" : "Body1"}, {"matrix" : [10, 0, 0, 0, 0, 10, 0, 0, 0, 0, 10, 0, 0, 0, 0, 1], "mesh" : 1, "name" : "Body2"}, {"matrix" : [10, 0, 0, 0, 0, 10, 0, 0, 0, 0, 10, 0, 0, 0, 0, 1], "mesh" : 2, "name" : "Body5"}, {"children" : [0, 1, 2], "name" : "BL-simple v3"}], "scene" : 0, "scenes" : [{"nodes" : [3]}]}