{"asset":{"version":"2.0","generator":"VECTARY"},"nodes":[{"translation":[0,0,0],"scale":[0.001,0.001,0.001],"rotation":[0.7071067811865476,1.1102230246251565e-16,0.7071067811865476,1.1102230246251565e-16],"name":"BL-simple v2","children":[1,2,3]},{"translation":[0,0,0],"scale":[10,10.000000000000002,10.000000000000002],"rotation":[0.7071067811865475,0,0,0.7071067811865476],"name":"Body1","mesh":0},{"translation":[0,0,0],"scale":[10,10.000000000000002,10.000000000000002],"rotation":[0.7071067811865475,0,0,0.7071067811865476],"name":"Body2","mesh":1},{"translation":[0,0,0],"scale":[10,10.000000000000002,10.000000000000002],"rotation":[0.7071067811865475,0,0,0.7071067811865476],"name":"Body5","mesh":2},{"translation":[-0.309948949022144,0.5959497275651451,0.7518738534956247],"scale":[1,1,1],"rotation":[-0.2417288251229586,-0.20633805375565464,-0.052686755066978314,0.9466867953645046],"name":"Camera","camera":0}],"materials":[{"pbrMetallicRoughness":{"baseColorFactor":[0.267358060183772,0.08464151072542946,0.016067700890886875,1],"metallicFactor":0,"roughnessFactor":0.2},"name":"Cherry","emissiveFactor":[0,0,0],"extensions":{},"alphaMode":"OPAQUE","doubleSided":false},{"pbrMetallicRoughness":{"baseColorFactor":[0.8512516451845149,0.8512516451845149,0.8512516451845149,1],"metallicFactor":0,"roughnessFactor":0.2},"name":"LED - SMD 3528 - 8lm (White)","emissiveFactor":[1,1,1],"extensions":{},"alphaMode":"OPAQUE","doubleSided":false},{"pbrMetallicRoughness":{"baseColorFactor":[0.9157501292792527,0.9157501292792527,0.9239933352518732,1],"metallicFactor":0,"roughnessFactor":0.2},"name":"Aluminum - Satin","emissiveFactor":[0,0,0],"extensions":{},"alphaMode":"OPAQUE","doubleSided":false}],"meshes":[{"primitives":[{"mode":4,"attributes":{"POSITION":1,"NORMAL":2,"TEXCOORD_0":3},"material":0,"indices":0}]},{"primitives":[{"mode":4,"attributes":{"POSITION":5,"NORMAL":6,"TEXCOORD_0":7},"material":1,"indices":4}]},{"primitives":[{"mode":4,"attributes":{"POSITION":9,"NORMAL":10,"TEXCOORD_0":11},"material":2,"indices":8}]}],"accessors":[{"bufferView":0,"byteOffset":0,"componentType":5125,"count":15876,"type":"SCALAR"},{"bufferView":1,"byteOffset":0,"componentType":5126,"count":3550,"max":[7.5,7.5,43],"min":[-7.5,-7.5,-2],"type":"VEC3"},{"bufferView":2,"byteOffset":0,"componentType":5126,"count":3550,"type":"VEC3"},{"bufferView":3,"byteOffset":0,"componentType":5126,"count":3550,"type":"VEC2"},{"bufferView":4,"byteOffset":0,"componentType":5125,"count":3492,"type":"SCALAR"},{"bufferView":5,"byteOffset":0,"componentType":5126,"count":836,"max":[1,0.6944921612739563,41.5],"min":[0,-0.6944921612739563,3],"type":"VEC3"},{"bufferView":6,"byteOffset":0,"componentType":5126,"count":836,"type":"VEC3"},{"bufferView":7,"byteOffset":0,"componentType":5126,"count":836,"type":"VEC2"},{"bufferView":8,"byteOffset":0,"componentType":5125,"count":6108,"type":"SCALAR"},{"bufferView":9,"byteOffset":0,"componentType":5126,"count":1298,"max":[8.899999618530273,0.6000000238418579,-0.2733236849308014],"min":[7.300000190734863,-0.6000000238418579,-1.4733237028121948],"type":"VEC3"},{"bufferView":10,"byteOffset":0,"componentType":5126,"count":1298,"type":"VEC3"},{"bufferView":11,"byteOffset":0,"componentType":5126,"count":1298,"type":"VEC2"}],"bufferViews":[{"buffer":0,"byteOffset":0,"byteLength":63504,"target":34963},{"buffer":0,"byteOffset":63504,"byteLength":42600,"target":34962},{"buffer":0,"byteOffset":106104,"byteLength":42600,"target":34962},{"buffer":0,"byteOffset":148704,"byteLength":28400,"target":34962},{"buffer":0,"byteOffset":177104,"byteLength":13968,"target":34963},{"buffer":0,"byteOffset":191072,"byteLength":10032,"target":34962},{"buffer":0,"byteOffset":201104,"byteLength":10032,"target":34962},{"buffer":0,"byteOffset":211136,"byteLength":6688,"target":34962},{"buffer":0,"byteOffset":217824,"byteLength":24432,"target":34963},{"buffer":0,"byteOffset":242256,"byteLength":15576,"target":34962},{"buffer":0,"byteOffset":257832,"byteLength":15576,"target":34962},{"buffer":0,"byteOffset":273408,"byteLength":10384,"target":34962}],"cameras":[{"name":"Camera","type":"perspective","extras":{"targetDistance":0.8548280758288904},"perspective":{"aspectRatio":1.1351495726495726,"yfov":0.6108652381980153,"zfar":52.448711752673105,"znear":0.012561740401526824}}],"scene":0,"scenes":[{"nodes":[0,4],"name":"Project Name"}],"extensionsUsed":["KHR_texture_transform"],"buffers":[{"byteLength":283792,"uri":"ProjectName.bin"}]}