{"accessors" : [{"bufferView" : 0, "byteOffset" : 0, "componentType" : 5123, "count" : 9024, "type" : "SCALAR", "max" : [7645], "min" : [0]}, {"bufferView" : 1, "byteOffset" : 0, "componentType" : 5126, "count" : 7646, "type" : "VEC3", "max" : [75, 75, 430], "min" : [-75, -75, -20], "name" : "POSITION"}, {"bufferView" : 1, "byteOffset" : 12, "componentType" : 5126, "count" : 7646, "type" : "VEC2", "max" : [41.400001525878906, 23.56194496154785], "min" : [-42.900001525878906, -24.378629684448242], "name" : "TEXCOORD_0"}, {"bufferView" : 1, "byteOffset" : 20, "componentType" : 5126, "count" : 7646, "type" : "VEC3", "max" : [1.0000044107437134, 1.0000044107437134, 1.0000044107437134], "min" : [-1.0000044107437134, -1.0000044107437134, -1.0000044107437134], "name" : "NORMAL"}, {"bufferView" : 0, "byteOffset" : 18048, "componentType" : 5123, "count" : 2088, "type" : "SCALAR", "max" : [1752], "min" : [0]}, {"bufferView" : 2, "byteOffset" : 0, "componentType" : 5126, "count" : 1753, "type" : "VEC3", "max" : [10, 6.944921970367432, 415], "min" : [0, -6.944921970367432, 30], "name" : "POSITION"}, {"bufferView" : 2, "byteOffset" : 12, "componentType" : 5126, "count" : 1753, "type" : "VEC2", "max" : [41.400001525878906, 3.863140106201172], "min" : [-41.400001525878906, -0.8999999761581421], "name" : "TEXCOORD_0"}, {"bufferView" : 2, "byteOffset" : 20, "componentType" : 5126, "count" : 1753, "type" : "VEC3", "max" : [1.0000044107437134, 1.0000044107437134, 1.0000044107437134], "min" : [-1.0000044107437134, -1.0000044107437134, -1.0000044107437134], "name" : "NORMAL"}, {"bufferView" : 0, "byteOffset" : 22224, "componentType" : 5123, "count" : 2976, "type" : "SCALAR", "max" : [2483], "min" : [0]}, {"bufferView" : 3, "byteOffset" : 0, "componentType" : 5126, "count" : 2484, "type" : "VEC3", "max" : [89, 6, -2.7332370281219482], "min" : [73, -6, -14.733237266540527], "name" : "POSITION"}, {"bufferView" : 3, "byteOffset" : 12, "componentType" : 5126, "count" : 2484, "type" : "VEC2", "max" : [0.5, 1.8849560022354126], "min" : [-1.2999999523162842, -1.8849560022354126], "name" : "TEXCOORD_0"}, {"bufferView" : 3, "byteOffset" : 20, "componentType" : 5126, "count" : 2484, "type" : "VEC3", "max" : [1.0000044107437134, 1.0000044107437134, 1.0000044107437134], "min" : [-1.0000044107437134, -1.0000044107437134, -1.0000044107437134], "name" : "NORMAL"}], "asset" : {"generator" : "Aspose.3D 22.7", "version" : "2.0"}, "buffers" : [{"uri" : "data:application/octet-stream;base64,", "byteLength" : 479008}], "bufferViews" : [{"buffer" : 0, "byteOffset" : 0, "byteLength" : 28176, "target" : 34963}, {"buffer" : 0, "byteOffset" : 28180, "byteLength" : 288768, "byteStride" : 32, "target" : 34962}, {"buffer" : 0, "byteOffset" : 316952, "byteLength" : 66816, "byteStride" : 32, "target" : 34962}, {"buffer" : 0, "byteOffset" : 383772, "byteLength" : 95232, "byteStride" : 32, "target" : 34962}], "meshes" : [{"primitives" : [{"attributes" : {"POSITION" : 1, "TEXCOORD_0" : 2, "NORMAL" : 3}, "indices" : 0, "mode" : 4}], "name" : ""}, {"primitives" : [{"attributes" : {"POSITION" : 5, "TEXCOORD_0" : 6, "NORMAL" : 7}, "indices" : 4, "mode" : 4}], "name" : ""}, {"primitives" : [{"attributes" : {"POSITION" : 9, "TEXCOORD_0" : 10, "NORMAL" : 11}, "indices" : 8, "mode" : 4}], "name" : ""}], "nodes" : [{"mesh" : 0, "name" : "Body1"}, {"mesh" : 1, "name" : "Body2"}, {"mesh" : 2, "name" : "Body5"}], "scene" : 0, "scenes" : [{"nodes" : [0, 1, 2]}]}